<?xml version="1.0" standalone="no"?>
<!DOCTYPE svg PUBLIC "-//W3C//DTD SVG 1.1//EN" "http://www.w3.org/Graphics/SVG/1.1/DTD/svg11.dtd" >
<svg>
<metadata>
Created by FontForge 20110222 at Sat Jul 19 22:19:32 2014
 By deploy user
DuffsDevice
</metadata>
<defs>
<font id="TinyUnicode" horiz-adv-x="320" >
  <font-face 
    font-family="TinyUnicode"
    font-weight="500"
    font-stretch="normal"
    units-per-em="1024"
    panose-1="2 0 6 3 0 0 0 0 0 0"
    ascent="768"
    descent="-256"
    x-height="256"
    cap-height="320"
    bbox="0 -128 640 682"
    underline-thickness="51"
    underline-position="-103"
    unicode-range="U+0020-3000"
  />
<missing-glyph horiz-adv-x="374" 
d="M34 0v682h272v-682h-272zM68 34h204v614h-204v-614z" />
    <glyph glyph-name=".notdef" horiz-adv-x="374" 
d="M34 0v682h272v-682h-272zM68 34h204v614h-204v-614z" />
    <glyph glyph-name=".null" horiz-adv-x="0" 
 />
    <glyph glyph-name="nonmarkingreturn" horiz-adv-x="341" 
 />
    <glyph glyph-name="space" unicode=" " 
 />
    <glyph glyph-name="exclam" unicode="!" horiz-adv-x="128" 
d="M0 0v64h64v-64h-64zM0 128v64v64v64h64v-64v-64v-64h-64z" />
    <glyph glyph-name="quotedbl" unicode="&#x22;" horiz-adv-x="256" 
d="M128 256v64v64h64v-64v-64h-64zM0 256v64v64h64v-64v-64h-64z" />
    <glyph glyph-name="numbersign" unicode="#" horiz-adv-x="384" 
d="M128 0v64h64v-64h-64zM0 0v64h64v-64h-64zM192 64v64h-64v-64h-64v64h-64v64h64v64h64v-64h64v64h64v-64h64v-64h-64v-64h-64zM256 256v64h64v-64h-64zM192 256h-64v64h64v-64z" />
    <glyph glyph-name="dollar" unicode="$" 
d="M128 -64v64h-64h-64v64h64h64v64h64h64v-64h-64v-64v-64h-64zM128 128h-64h-64v64h64v64v64h64v-64h64h64v-64h-64h-64v-64z" />
    <glyph glyph-name="percent" unicode="%" horiz-adv-x="256" 
d="M128 0v64h64v-64h-64zM0 0v64v64h64v-64v-64h-64zM0 256v64h64v-64h-64zM64 128v64h64v-64h-64zM128 192v64v64h64v-64v-64h-64z" />
    <glyph glyph-name="ampersand" unicode="&#x26;" horiz-adv-x="384" 
d="M256 0v64h64v-64h-64zM128 64h64v-64h-64h-64v64h64zM256 64h-64v64h64v-64zM64 64h-64v64h64v-64zM256 128v64h64v-64h-64zM192 128h-64h-64v64h64h64v-64zM64 192h-64v64h64v-64zM128 320h64v-64h-64h-64v64h64z" />
    <glyph glyph-name="quotesingle" unicode="'" horiz-adv-x="128" 
d="M0 256v64v64h64v-64v-64h-64z" />
    <glyph glyph-name="parenleft" unicode="(" horiz-adv-x="192" 
d="M64 -64v64h64v-64h-64zM64 0h-64v64v64v64v64v64h64v-64v-64v-64v-64v-64zM64 320v64h64v-64h-64z" />
    <glyph glyph-name="parenright" unicode=")" horiz-adv-x="192" 
d="M0 -64v64h64v-64h-64zM64 0v64v64v64v64v64h64v-64v-64v-64v-64v-64h-64zM64 320h-64v64h64v-64z" />
    <glyph glyph-name="asterisk" unicode="*" horiz-adv-x="256" 
d="M128 192v64h64v-64h-64zM0 192v64h64v-64h-64zM128 256h-64v64h64v-64zM128 320v64h64v-64h-64zM64 320h-64v64h64v-64z" />
    <glyph glyph-name="plus" unicode="+" horiz-adv-x="256" 
d="M64 64v64h-64v64h64v64h64v-64h64v-64h-64v-64h-64z" />
    <glyph glyph-name="comma" unicode="," horiz-adv-x="192" 
d="M0 -64v64h64v-64h-64zM64 0v64h64v-64h-64z" />
    <glyph glyph-name="hyphen" unicode="-" horiz-adv-x="256" 
d="M128 192h64v-64h-64h-64h-64v64h64h64z" />
    <glyph glyph-name="period" unicode="." horiz-adv-x="128" 
d="M0 0v64h64v-64h-64z" />
    <glyph glyph-name="slash" unicode="/" horiz-adv-x="256" 
d="M0 0v64v64h64v-64v-64h-64zM64 128v64h64v-64h-64zM128 192v64v64h64v-64v-64h-64z" />
    <glyph glyph-name="zero" unicode="0" 
d="M128 64h64v-64h-64h-64v64h64zM192 64v64v64v64h64v-64v-64v-64h-64zM64 64h-64v64v64v64h64v-64v-64v-64zM192 256h-64h-64v64h64h64v-64z" />
    <glyph glyph-name="one" unicode="1" horiz-adv-x="192" 
d="M64 0v64v64v64h-64v64h64v64h64v-64v-64v-64v-64v-64h-64z" />
    <glyph glyph-name="two" unicode="2" 
d="M0 192v64h64v-64h-64zM192 64h64v-64h-64h-64h-64h-64v64h64v64h64v-64h64zM128 128v64h64v-64h-64zM192 192v64h64v-64h-64zM192 256h-64h-64v64h64h64v-64z" />
    <glyph glyph-name="three" unicode="3" 
d="M128 64h64v-64h-64h-64h-64v64h64h64zM192 64v64h-64h-64v64h64h64v64h64v-64v-64v-64h-64zM192 256h-64h-64h-64v64h64h64h64v-64z" />
    <glyph glyph-name="four" unicode="4" 
d="M128 0v64h-64h-64v64v64h64v64h64v64h64v-64v-64v-64h64v-64h-64v-64h-64zM128 128v64h-64v-64h64z" />
    <glyph glyph-name="five" unicode="5" 
d="M128 64h64v-64h-64h-64h-64v64h64h64zM192 64v64h64v-64h-64zM192 128h-64h-64h-64v64v64v64h64h64h64h64v-64h-64h-64h-64v-64h64h64v-64z" />
    <glyph glyph-name="six" unicode="6" 
d="M128 64h64v-64h-64h-64v64h64zM192 64v64h64v-64h-64zM64 64h-64v64v64v64h64v-64h64h64v-64h-64h-64v-64zM128 320h64v-64h-64h-64v64h64z" />
    <glyph glyph-name="seven" unicode="7" 
d="M64 0v64v64h64v-64v-64h-64zM128 128v64h64v-64h-64zM192 192v64h-64h-64h-64v64h64h64h64h64v-64v-64h-64z" />
    <glyph glyph-name="eight" unicode="8" 
d="M128 64h64v-64h-64h-64v64h64zM192 64v64h64v-64h-64zM64 64h-64v64h64v-64zM192 128h-64h-64v64h64h64v-64zM192 192v64h64v-64h-64zM64 192h-64v64h64v-64zM192 256h-64h-64v64h64h64v-64z" />
    <glyph glyph-name="nine" unicode="9" 
d="M128 64h64v-64h-64h-64v64h64zM192 64v64h-64h-64v64h64h64v64h64v-64v-64v-64h-64zM64 192h-64v64h64v-64zM192 256h-64h-64v64h64h64v-64z" />
    <glyph glyph-name="colon" unicode=":" horiz-adv-x="128" 
d="M0 0v64h64v-64h-64zM0 128v64h64v-64h-64z" />
    <glyph glyph-name="semicolon" unicode=";" horiz-adv-x="192" 
d="M0 -64v64h64v-64h-64zM64 128v64h64v-64h-64zM64 0v64h64v-64h-64z" />
    <glyph glyph-name="less" unicode="&#x3c;" horiz-adv-x="192" 
d="M64 64v64h64v-64h-64zM64 128h-64v64h64v-64zM64 192v64h64v-64h-64z" />
    <glyph glyph-name="equal" unicode="=" 
d="M192 128h64v-64h-64h-64h-64h-64v64h64h64h64zM192 256h64v-64h-64h-64h-64h-64v64h64h64h64z" />
    <glyph glyph-name="greater" unicode="&#x3e;" horiz-adv-x="192" 
d="M0 64v64h64v-64h-64zM64 128v64h64v-64h-64zM64 192h-64v64h64v-64z" />
    <glyph glyph-name="question" unicode="?" 
d="M64 0v64h64v-64h-64zM128 192h64v-64h-64h-64v64h64zM192 192v64h64v-64h-64zM192 256h-64h-64h-64v64h64h64h64v-64z" />
    <glyph glyph-name="at" unicode="@" horiz-adv-x="512" 
d="M320 0h64v-64h-64h-64h-64h-64v64h64h64h64zM128 0h-64v64h64v-64zM320 64h-64h-64v64h-64v64h64v64h64h64v-64v-64h64v-64h-64zM64 64h-64v64v64v64h64v-64v-64v-64zM384 128v64v64v64h64v-64v-64v-64h-64zM256 128v64h-64v-64h64zM64 256v64h64v-64h-64zM384 320h-64
h-64h-64h-64v64h64h64h64h64v-64z" />
    <glyph glyph-name="A" unicode="A" 
d="M192 0v64v64h-64h-64v-64v-64h-64v64v64v64v64h64v-64h64h64v64h64v-64v-64v-64v-64h-64zM192 256h-64h-64v64h64h64v-64z" />
    <glyph glyph-name="B" unicode="B" 
d="M128 64h64v64h-64h-64v-64h64zM128 0h-64h-64v64v64v64v64v64h64h64h64v-64h64v-64h-64v64h-64h-64v-64h64h64v-64h64v-64h-64v-64h-64z" />
    <glyph glyph-name="C" unicode="C" horiz-adv-x="256" 
d="M128 64h64v-64h-64h-64v64h64zM64 64h-64v64v64v64h64v-64v-64v-64zM128 320h64v-64h-64h-64v64h64z" />
    <glyph glyph-name="D" unicode="D" 
d="M128 64h64v64v64v64h-64h-64v-64v-64v-64h64zM128 0h-64h-64v64v64v64v64v64h64h64h64v-64h64v-64v-64v-64h-64v-64h-64z" />
    <glyph glyph-name="E" unicode="E" horiz-adv-x="256" 
d="M128 64h64v-64h-64h-64h-64v64v64v64v64v64h64h64h64v-64h-64h-64v-64h64v-64h-64v-64h64z" />
    <glyph glyph-name="F" unicode="F" horiz-adv-x="256" 
d="M0 0v64v64v64v64v64h64h64h64v-64h-64h-64v-64h64h64v-64h-64h-64v-64v-64h-64z" />
    <glyph glyph-name="G" unicode="G" 
d="M192 0h-64h-64v64h64h64v64h-64v64h64h64v-64v-64v-64h-64zM64 64h-64v64v64v64h64v-64v-64v-64zM192 320h64v-64h-64h-64h-64v64h64h64z" />
    <glyph glyph-name="H" unicode="H" 
d="M192 0v64v64h-64h-64v-64v-64h-64v64v64v64v64v64h64v-64v-64h64h64v64v64h64v-64v-64v-64v-64v-64h-64z" />
    <glyph glyph-name="I" unicode="I" horiz-adv-x="256" 
d="M128 0h-64h-64v64h64v64v64v64h-64v64h64h64h64v-64h-64v-64v-64v-64h64v-64h-64z" />
    <glyph glyph-name="J" unicode="J" 
d="M128 64h64v-64h-64h-64v64h64zM192 64v64v64v64h-64h-64v64h64h64h64v-64v-64v-64v-64h-64zM64 64h-64v64h64v-64z" />
    <glyph glyph-name="K" unicode="K" 
d="M192 0v64h64v-64h-64zM0 0v64v64v64v64v64h64v-64v-64h64v-64h64v-64h-64v64h-64v-64v-64h-64zM128 192v64h64v-64h-64zM192 256v64h64v-64h-64z" />
    <glyph glyph-name="L" unicode="L" horiz-adv-x="256" 
d="M128 64h64v-64h-64h-64h-64v64v64v64v64v64h64v-64v-64v-64v-64h64z" />
    <glyph glyph-name="M" unicode="M" horiz-adv-x="384" 
d="M256 0v64v64v64h-64v-64h-64v64h64v64h64v64h64v-64v-64v-64v-64v-64h-64zM0 0v64v64v64v64v64h64v-64h64v-64h-64v-64v-64v-64h-64z" />
    <glyph glyph-name="N" unicode="N" 
d="M192 0v64v64h-64v64h64v64v64h64v-64v-64v-64v-64v-64h-64zM0 0v64v64v64v64v64h64v-64h64v-64h-64v-64v-64v-64h-64z" />
    <glyph glyph-name="O" unicode="O" 
d="M128 64h64v-64h-64h-64v64h64zM192 64v64v64v64h64v-64v-64v-64h-64zM64 64h-64v64v64v64h64v-64v-64v-64zM192 256h-64h-64v64h64h64v-64z" />
    <glyph glyph-name="P" unicode="P" 
d="M0 0v64v64v64v64v64h64h64h64v-64h64v-64h-64v64h-64h-64v-64h64h64v-64h-64h-64v-64v-64h-64z" />
    <glyph glyph-name="Q" unicode="Q" 
d="M192 -64v64h64v-64h-64zM192 0h-64h-64v64h64h64v-64zM192 64v64v64v64h64v-64v-64v-64h-64zM64 64h-64v64v64v64h64v-64v-64v-64zM192 256h-64h-64v64h64h64v-64z" />
    <glyph glyph-name="R" unicode="R" 
d="M192 0v64h64v-64h-64zM0 0v64v64v64v64v64h64h64h64v-64h64v-64v-64h-64v64v64h-64h-64v-64v-64h64h64v-64h-64h-64v-64h-64z" />
    <glyph glyph-name="S" unicode="S" 
d="M128 64h64v-64h-64h-64h-64v64h64h64zM192 64v64h64v-64h-64zM192 128h-64h-64v64h64h64v-64zM64 192h-64v64h64v-64zM192 320h64v-64h-64h-64h-64v64h64h64z" />
    <glyph glyph-name="T" unicode="T" horiz-adv-x="256" 
d="M64 0v64v64v64v64h-64v64h64h64h64v-64h-64v-64v-64v-64v-64h-64z" />
    <glyph glyph-name="U" unicode="U" 
d="M128 64h64v-64h-64h-64v64h64zM192 64v64v64v64v64h64v-64v-64v-64v-64h-64zM64 64h-64v64v64v64v64h64v-64v-64v-64v-64z" />
    <glyph glyph-name="V" unicode="V" 
d="M64 0v64h64v-64h-64zM128 64v64v64h64v-64v-64h-64zM64 64h-64v64v64v64v64h64v-64v-64v-64v-64zM192 192v64v64h64v-64v-64h-64z" />
    <glyph glyph-name="W" unicode="W" horiz-adv-x="384" 
d="M192 0v64h64v-64h-64zM64 0v64h64v-64h-64zM256 64v64v64v64v64h64v-64v-64v-64v-64h-64zM192 64h-64v64v64h64v-64v-64zM64 64h-64v64v64v64v64h64v-64v-64v-64v-64z" />
    <glyph glyph-name="X" unicode="X" 
d="M192 0v64v64h64v-64v-64h-64zM0 0v64v64h64v-64v-64h-64zM192 128h-64h-64v64h64h64v-64zM192 192v64v64h64v-64v-64h-64zM64 192h-64v64v64h64v-64v-64z" />
    <glyph glyph-name="Y" unicode="Y" 
d="M128 64h64v-64h-64h-64v64h64zM192 64v64h-64h-64v64h64h64v64v64h64v-64v-64v-64v-64h-64zM64 192h-64v64v64h64v-64v-64z" />
    <glyph glyph-name="Z" unicode="Z" horiz-adv-x="256" 
d="M128 64h64v-64h-64h-64h-64v64v64h64v-64h64zM64 128v64h64v-64h-64zM128 192v64h-64h-64v64h64h64h64v-64v-64h-64z" />
    <glyph glyph-name="bracketleft" unicode="[" horiz-adv-x="192" 
d="M64 -64h-64v64v64v64v64v64v64h64h64v-64h-64v-64v-64v-64v-64h64v-64h-64z" />
    <glyph glyph-name="backslash" unicode="\" horiz-adv-x="256" 
d="M128 0v64v64h64v-64v-64h-64zM128 128h-64v64h64v-64zM64 192h-64v64v64h64v-64v-64z" />
    <glyph glyph-name="bracketright" unicode="]" horiz-adv-x="192" 
d="M64 -64h-64v64h64v64v64v64v64h-64v64h64h64v-64v-64v-64v-64v-64v-64h-64z" />
    <glyph glyph-name="asciicircum" unicode="^" horiz-adv-x="256" 
d="M128 192v64h64v-64h-64zM0 192v64h64v-64h-64zM128 256h-64v64h64v-64z" />
    <glyph glyph-name="underscore" unicode="_" horiz-adv-x="384" 
d="M256 0h64v-64h-64h-64h-64h-64h-64v64h64h64h64h64z" />
    <glyph glyph-name="grave" unicode="`" horiz-adv-x="192" 
d="M64 192v64h64v-64h-64zM64 256h-64v64h64v-64z" />
    <glyph glyph-name="a" unicode="a" 
d="M192 0h-64h-64v64h-64v64v64h64v64h64h64h64v-64v-64v-64v-64h-64zM128 64h64v64v64h-64h-64v-64v-64h64z" />
    <glyph glyph-name="b" unicode="b" 
d="M128 64h64v64v64h-64h-64v-64v-64h64zM128 0h-64h-64v64v64v64v64v64h64v-64h64h64v-64h64v-64v-64h-64v-64h-64z" />
    <glyph glyph-name="c" unicode="c" horiz-adv-x="256" 
d="M128 64h64v-64h-64h-64v64h64zM64 64h-64v64v64h64v-64v-64zM128 256h64v-64h-64h-64v64h64z" />
    <glyph glyph-name="d" unicode="d" 
d="M192 0h-64h-64v64h-64v64v64h64v64h64h64v64h64v-64v-64v-64v-64v-64h-64zM128 64h64v64v64h-64h-64v-64v-64h64z" />
    <glyph glyph-name="e" unicode="e" 
d="M128 0h-64v64h-64v64v64h64v-64h64v-64h64v-64h-64zM128 128v64h-64v64h64h64v-64h64v-64h-64h-64z" />
    <glyph glyph-name="f" unicode="f" horiz-adv-x="256" 
d="M64 0v64v64h-64v64h64v64v64h64h64v-64h-64v-64h64v-64h-64v-64v-64h-64z" />
    <glyph glyph-name="g" unicode="g" 
d="M128 -64h64v-64h-64h-64v64h64zM192 -64v64h-64h-64v64h-64v64v64h64v64h64h64h64v-64v-64v-64v-64v-64h-64zM128 64h64v64v64h-64h-64v-64v-64h64z" />
    <glyph glyph-name="h" unicode="h" 
d="M192 0v64v64v64h64v-64v-64v-64h-64zM0 0v64v64v64v64v64h64v-64h64h64v-64h-64h-64v-64v-64v-64h-64z" />
    <glyph glyph-name="i" unicode="i" horiz-adv-x="128" 
d="M0 0v64v64v64h64v-64v-64v-64h-64zM0 256v64h64v-64h-64z" />
    <glyph glyph-name="j" unicode="j" horiz-adv-x="192" 
d="M0 -128v64h64v-64h-64zM64 256v64h64v-64h-64zM64 -64v64v64v64v64h64v-64v-64v-64v-64h-64z" />
    <glyph glyph-name="k" unicode="k" 
d="M192 0v64h64v-64h-64zM0 0v64v64v64v64v64h64v-64v-64v-64h64v64h64v-64v-64h-64h-64v-64h-64zM192 192v64h64v-64h-64z" />
    <glyph glyph-name="l" unicode="l" horiz-adv-x="128" 
d="M0 0v64v64v64v64v64h64v-64v-64v-64v-64v-64h-64z" />
    <glyph glyph-name="m" unicode="m" horiz-adv-x="384" 
d="M256 0v64v64v64h64v-64v-64v-64h-64zM128 0v64v64v64h-64v-64v-64v-64h-64v64v64v64v64h64h64h64h64v-64h-64v-64v-64v-64h-64z" />
    <glyph glyph-name="n" unicode="n" 
d="M192 0v64v64v64h64v-64v-64v-64h-64zM0 0v64v64v64v64h64h64h64v-64h-64h-64v-64v-64v-64h-64z" />
    <glyph glyph-name="o" unicode="o" 
d="M128 64h64v-64h-64h-64v64h64zM192 64v64v64h64v-64v-64h-64zM64 64h-64v64v64h64v-64v-64zM192 192h-64h-64v64h64h64v-64z" />
    <glyph glyph-name="p" unicode="p" 
d="M0 -128v64v64v64v64v64v64h64h64h64v-64h64v-64v-64h-64v64v64h-64h-64v-64v-64h64h64v-64h-64h-64v-64v-64h-64z" />
    <glyph glyph-name="q" unicode="q" 
d="M192 -128v64v64h-64h-64v64h-64v64v64h64v64h64h64h64v-64v-64v-64v-64v-64v-64h-64zM128 64h64v64v64h-64h-64v-64v-64h64z" />
    <glyph glyph-name="r" unicode="r" horiz-adv-x="256" 
d="M0 0v64v64v64v64h64v-64h64v-64h-64v-64v-64h-64zM128 192v64h64v-64h-64z" />
    <glyph glyph-name="s" unicode="s" 
d="M128 0h-64h-64v64h64h64v64h64h64v-64h-64v-64h-64zM128 128h-64h-64v64h64v64h64h64h64v-64h-64h-64v-64z" />
    <glyph glyph-name="t" unicode="t" horiz-adv-x="256" 
d="M128 0h-64v64v64v64h-64v64h64v64h64v-64h64v-64h-64v-64v-64h64v-64h-64z" />
    <glyph glyph-name="u" unicode="u" 
d="M192 0h-64h-64v64h64h64v64v64v64h64v-64v-64v-64v-64h-64zM64 64h-64v64v64v64h64v-64v-64v-64z" />
    <glyph glyph-name="v" unicode="v" 
d="M64 0v64h64v-64h-64zM128 64v64h64v-64h-64zM64 64h-64v64v64v64h64v-64v-64v-64zM192 128v64v64h64v-64v-64h-64z" />
    <glyph glyph-name="w" unicode="w" horiz-adv-x="384" 
d="M192 0v64h64v-64h-64zM64 0v64h64v-64h-64zM256 64v64v64v64h64v-64v-64v-64h-64zM192 64h-64v64v64h64v-64v-64zM64 64h-64v64v64v64h64v-64v-64v-64z" />
    <glyph glyph-name="x" unicode="x" horiz-adv-x="256" 
d="M128 0v64h64v-64h-64zM0 0v64h64v-64h-64zM128 64h-64v64v64h64v-64v-64zM128 192v64h64v-64h-64zM64 192h-64v64h64v-64z" />
    <glyph glyph-name="y" unicode="y" 
d="M128 -64h64v-64h-64h-64h-64v64h64h64zM192 -64v64h-64h-64v64h64h64v64v64v64h64v-64v-64v-64v-64v-64h-64zM64 64h-64v64v64v64h64v-64v-64v-64z" />
    <glyph glyph-name="z" unicode="z" 
d="M192 64h64v-64h-64h-64h-64h-64v64h64v64h64v-64h64zM128 128v64h-64h-64v64h64h64h64h64v-64h-64v-64h-64z" />
    <glyph glyph-name="braceleft" unicode="{" horiz-adv-x="256" 
d="M128 -64h-64v64v64v64h64v-64v-64h64v-64h-64zM64 128h-64v64h64v-64zM64 192v64v64v64h64h64v-64h-64v-64v-64h-64z" />
    <glyph glyph-name="bar" unicode="|" horiz-adv-x="128" 
d="M0 0v64v64v64v64v64h64v-64v-64v-64v-64v-64h-64z" />
    <glyph glyph-name="braceright" unicode="}" horiz-adv-x="256" 
d="M64 -64h-64v64h64v64v64h64v-64v-64v-64h-64zM128 128v64h64v-64h-64zM128 192h-64v64v64h-64v64h64h64v-64v-64v-64z" />
    <glyph glyph-name="asciitilde" unicode="~" horiz-adv-x="384" 
d="M192 64v64h64v-64h-64zM0 64v64v64h64v-64v-64h-64zM256 128v64v64h64v-64v-64h-64zM192 128h-64v64h64v-64zM128 192h-64v64h64v-64z" />
    <glyph glyph-name="exclamdown" unicode="&#xa1;" horiz-adv-x="128" 
d="M0 -64v64v64v64h64v-64v-64v-64h-64zM0 192v64h64v-64h-64z" />
    <glyph glyph-name="cent" unicode="&#xa2;" 
d="M64 -64v64v64h-64v64v64h64v64h64h64v64h64v-64v-64h-64v-64v-64h64v-64h-64h-64v-64h-64zM128 64v64v64h-64v-64v-64h64z" />
    <glyph glyph-name="sterling" unicode="&#xa3;" 
d="M192 64h64v-64h-64h-64h-64h-64v64h64v64v64v64h64v-64h64v-64h-64v-64h64zM192 320h64v-64h-64h-64v64h64z" />
    <glyph glyph-name="currency" unicode="&#xa4;" horiz-adv-x="384" 
d="M256 0v64h64v-64h-64zM0 0v64h64v-64h-64zM256 64h-64h-64h-64v64v64v64h64h64h64v-64v-64v-64zM192 128v64h-64v-64h64zM256 256v64h64v-64h-64zM64 256h-64v64h64v-64z" />
    <glyph glyph-name="yen" unicode="&#xa5;" horiz-adv-x="256" 
d="M64 0v64h-64v64h64v64h64v-64h64v-64h-64v-64h-64zM128 192v64v64h64v-64v-64h-64zM64 192h-64v64v64h64v-64v-64z" />
    <glyph glyph-name="brokenbar" unicode="&#xa6;" horiz-adv-x="128" 
d="M0 -64v64v64h64v-64v-64h-64zM0 192v64v64h64v-64v-64h-64z" />
    <glyph glyph-name="section" unicode="&#xa7;" 
d="M128 -64h64v-64h-64h-64h-64v64h64h64zM192 -64v64h-64h-64v64h64h64v64h64v-64v-64v-64h-64zM64 64h-64v64v64v64h64v-64h64h64v-64h-64h-64v-64zM192 320h64v-64h-64h-64h-64v64h64h64z" />
    <glyph glyph-name="dieresis" unicode="&#xa8;" horiz-adv-x="256" 
d="M128 256v64h64v-64h-64zM0 256v64h64v-64h-64z" />
    <glyph glyph-name="copyright" unicode="&#xa9;" horiz-adv-x="192" 
d="M64 192h-64v64v64h64v-64h64v-64h-64z" />
    <glyph glyph-name="ordfeminine" unicode="&#xaa;" horiz-adv-x="576" 
d="M256 0h64v-64h-64h-64v64h64zM320 0v64h64v-64h-64zM192 0h-64v64h64v-64zM384 64v64h-64v64v64v64h-64h-64v-64v-64v-64h-64v-64h-64v64h-64v64h64h64v64v64v64h64h64h64h64v-64v-64v-64h64h64v-64h-64v-64h-64z" />
    <glyph glyph-name="guillemotleft" unicode="&#xab;" 
d="M192 0v64h64v-64h-64zM64 0v64h64v-64h-64zM192 64h-64v64v64h64v-64v-64zM64 64h-64v64v64h64v-64v-64zM192 192v64h64v-64h-64zM128 192h-64v64h64v-64z" />
    <glyph glyph-name="logicalnot" unicode="&#xac;" 
d="M192 128v64h-64h-64h-64v64h64h64h64h64v-64v-64h-64z" />
    <glyph glyph-name="registered" unicode="&#xae;" horiz-adv-x="192" 
d="M64 192h-64v64v64h64v-64h64v-64h-64z" />
    <glyph glyph-name="macron" unicode="&#xaf;" 
d="M192 320h64v-64h-64h-64h-64h-64v64h64h64h64z" />
    <glyph glyph-name="degree" unicode="&#xb0;" horiz-adv-x="256" 
d="M64 128v64h64v-64h-64zM128 192v64h64v-64h-64zM64 192h-64v64h64v-64zM128 256h-64v64h64v-64z" />
    <glyph glyph-name="plusminus" unicode="&#xb1;" horiz-adv-x="256" 
d="M64 128v64h-64v64h64v64h64v-64h64v-64h-64v-64h-64zM128 64h64v-64h-64h-64h-64v64h64h64z" />
    <glyph glyph-name="uni00B2" unicode="&#xb2;" horiz-adv-x="192" 
d="M64 192h-64v64v64h64h64v-64v-64h-64z" />
    <glyph glyph-name="uni00B3" unicode="&#xb3;" horiz-adv-x="192" 
d="M64 192h-64v64v64h64h64v-64v-64h-64z" />
    <glyph glyph-name="acute" unicode="&#xb4;" horiz-adv-x="192" 
d="M0 192v64h64v-64h-64zM64 256v64h64v-64h-64z" />
    <glyph glyph-name="uni00B5" unicode="&#xb5;" 
d="M0 -128v64v64v64v64v64v64h64v-64v-64v-64h64h64v-64h-64h-64v-64v-64h-64zM192 64v64v64v64h64v-64v-64v-64h-64z" />
    <glyph glyph-name="paragraph" unicode="&#xb6;" horiz-adv-x="384" 
d="M256 0v64v64v64v64h-64v-64v-64v-64v-64h-64v64v64h-64v64h-64v64h64v64h64h64h64h64v-64v-64v-64v-64v-64h-64z" />
    <glyph glyph-name="periodcentered" unicode="&#xb7;" horiz-adv-x="192" 
d="M64 128v64h64v-64h-64z" />
    <glyph glyph-name="cedilla" unicode="&#xb8;" horiz-adv-x="576" 
d="M256 -64h-64v64h-64v64h-64v64h-64v64h64h64v64v64v64h64h64h64h64v-64v-64v-64h64h64v-64h-64v-64h-64v-64h-64v-64h-64z" />
    <glyph glyph-name="uni00B9" unicode="&#xb9;" horiz-adv-x="192" 
d="M64 192v64h-64v64h64h64v-64v-64h-64z" />
    <glyph glyph-name="ordmasculine" unicode="&#xba;" horiz-adv-x="192" 
d="M64 192h-64v64v64h64h64v-64v-64h-64z" />
    <glyph glyph-name="guillemotright" unicode="&#xbb;" 
d="M128 0v64h64v-64h-64zM0 0v64h64v-64h-64zM192 64v64v64h64v-64v-64h-64zM128 64h-64v64v64h64v-64v-64zM192 192h-64v64h64v-64zM64 192h-64v64h64v-64z" />
    <glyph glyph-name="onequarter" unicode="&#xbc;" horiz-adv-x="512" 
d="M0 -128v64v64v64h64v64h64h64v-64v-64v-64h-64h-64v-64h-64zM320 -64h-64v64v64v64h64h64v64h64v-64v-64v-64h-64v-64h-64zM64 128h-64v64v64v64h64v64h64h64v-64v-64v-64h-64h-64v-64zM384 192h-64h-64v64v64v64h64h64h64v-64v-64h-64v-64z" />
    <glyph glyph-name="onehalf" unicode="&#xbd;" horiz-adv-x="576" 
d="M320 -64h-64h-64h-64v64v64v64h-64h-64v64h64v64h64v64h64v64h64h64v-64h64v-64h64v-64h64v-64h-64h-64v-64v-64v-64h-64z" />
    <glyph glyph-name="threequarters" unicode="&#xbe;" horiz-adv-x="576" 
d="M320 -64h-64h-64h-64v64v64v64h-64h-64v64h64v64h64v-64h64v-64v-64v-64h64h64v64v64v64h64v64h64v-64h64v-64h-64h-64v-64v-64v-64h-64zM384 256h-64v64h64v-64zM128 256v64h64v-64h-64zM320 320h-64h-64v64h64h64v-64z" />
    <glyph glyph-name="questiondown" unicode="&#xbf;" 
d="M128 192v64h64v-64h-64zM192 0h64v-64h-64h-64h-64v64h64h64zM64 0h-64v64h64v-64zM128 128h64v-64h-64h-64v64h64z" />
    <glyph glyph-name="Agrave" unicode="&#xc0;" 
d="M192 0v64v64h-64h-64v-64v-64h-64v64v64v64v64h64v-64h64h64v64h64v-64v-64v-64v-64h-64zM192 256h-64h-64v64v64h64v-64h64v-64z" />
    <glyph glyph-name="Aacute" unicode="&#xc1;" 
d="M192 0v64v64h-64h-64v-64v-64h-64v64v64v64v64h64v-64h64h64v64h64v-64v-64v-64v-64h-64zM192 256h-64h-64v64h64v64h64v-64v-64z" />
    <glyph glyph-name="Acircumflex" unicode="&#xc2;" 
d="M192 0v64v64h-64h-64v-64v-64h-64v64v64v64v64h64v-64h64h64v64h64v-64v-64v-64v-64h-64zM192 256h-64h-64v64v64h64h64v-64v-64z" />
    <glyph glyph-name="Atilde" unicode="&#xc3;" 
d="M192 0v64v64h-64h-64v-64v-64h-64v64v64v64v64h64v-64h64h64v64h64v-64v-64v-64v-64h-64zM192 256h-64h-64v64v64h64h64v-64v-64z" />
    <glyph glyph-name="Adieresis" unicode="&#xc4;" 
d="M192 0v64v64h-64h-64v-64v-64h-64v64v64v64v64h64v-64h64h64v64h64v-64v-64v-64v-64h-64zM192 256h-64h-64v64h64h64v-64zM192 320v64h64v-64h-64zM64 320h-64v64h64v-64z" />
    <glyph glyph-name="Aring" unicode="&#xc5;" 
d="M192 0v64v64h-64h-64v-64v-64h-64v64v64v64v64h64v-64h64h64v64h64v-64v-64v-64v-64h-64zM192 256h-64h-64v64v64h64h64v-64v-64z" />
    <glyph glyph-name="AE" unicode="&#xc6;" horiz-adv-x="448" 
d="M0 0v64v64h64v-64v-64h-64zM320 64h64v-64h-64h-64h-64v64v64h-64h-64v64v64h64v64h64h64h64h64v-64h-64h-64v-64h64v-64h-64v-64h64zM192 192v64h-64v-64h64z" />
    <glyph glyph-name="Ccedilla" unicode="&#xc7;" horiz-adv-x="256" 
d="M64 -128v64h64v-64h-64zM128 -64v64h-64v64h64h64v-64v-64h-64zM64 64h-64v64v64v64h64v-64v-64v-64zM128 320h64v-64h-64h-64v64h64z" />
    <glyph glyph-name="Egrave" unicode="&#xc8;" horiz-adv-x="256" 
d="M128 64h64v-64h-64h-64h-64v64v64v64v64v64h64v64h64v-64h64v-64h-64h-64v-64h64v-64h-64v-64h64z" />
    <glyph glyph-name="Eacute" unicode="&#xc9;" horiz-adv-x="256" 
d="M128 64h64v-64h-64h-64h-64v64v64v64v64v64h64h64v64h64v-64v-64h-64h-64v-64h64v-64h-64v-64h64z" />
    <glyph glyph-name="Ecircumflex" unicode="&#xca;" horiz-adv-x="256" 
d="M128 64h64v-64h-64h-64h-64v64v64v64v64v64h64h64h64v-64h-64h-64v-64h64v-64h-64v-64h64z" />
    <glyph glyph-name="Edieresis" unicode="&#xcb;" horiz-adv-x="256" 
d="M128 64h64v-64h-64h-64h-64v64v64v64v64v64v64h64v-64h64v64h64v-64v-64h-64h-64v-64h64v-64h-64v-64h64z" />
    <glyph glyph-name="Igrave" unicode="&#xcc;" horiz-adv-x="256" 
d="M128 0h-64h-64v64h64v64v64h-64v64h64v64h64v-64h64v-64h-64v-64v-64h64v-64h-64zM64 320h-64v64h64v-64z" />
    <glyph glyph-name="Iacute" unicode="&#xcd;" horiz-adv-x="256" 
d="M128 0h-64h-64v64h64v64v64h-64v64h64v64h64v-64h64v-64h-64v-64v-64h64v-64h-64zM128 320v64h64v-64h-64z" />
    <glyph glyph-name="Icircumflex" unicode="&#xce;" horiz-adv-x="256" 
d="M64 320v64h64v-64h-64zM128 0h-64h-64v64h64v64v64h-64v64h64h64h64v-64h-64v-64v-64h64v-64h-64z" />
    <glyph glyph-name="Idieresis" unicode="&#xcf;" horiz-adv-x="256" 
d="M128 320v64h64v-64h-64zM0 320v64h64v-64h-64zM128 0h-64h-64v64h64v64v64h-64v64h64h64h64v-64h-64v-64v-64h64v-64h-64z" />
    <glyph glyph-name="Eth" unicode="&#xd0;" horiz-adv-x="704" 
d="M128 -64v64h-64v64h-64v64h64v64h64v64h64v-64v-64h64h64h64h64h64h64h64v-64h-64h-64h-64h-64h-64h-64h-64v-64v-64h-64z" />
    <glyph glyph-name="Ntilde" unicode="&#xd1;" 
d="M192 0v64v64h-64v64h64v64v64h64v-64v-64v-64v-64v-64h-64zM0 0v64v64v64v64v64h64v-64h64v-64h-64v-64v-64v-64h-64zM192 320h-64h-64v64h64h64v-64z" />
    <glyph glyph-name="Ograve" unicode="&#xd2;" 
d="M128 64h64v-64h-64h-64v64h64zM192 64v64v64v64h64v-64v-64v-64h-64zM64 64h-64v64v64v64h64v-64v-64v-64zM192 256h-64h-64v64v64h64v-64h64v-64z" />
    <glyph glyph-name="Oacute" unicode="&#xd3;" 
d="M128 64h64v-64h-64h-64v64h64zM192 64v64v64v64h64v-64v-64v-64h-64zM64 64h-64v64v64v64h64v-64v-64v-64zM192 256h-64h-64v64h64v64h64v-64v-64z" />
    <glyph glyph-name="Ocircumflex" unicode="&#xd4;" 
d="M128 64h64v-64h-64h-64v64h64zM192 64v64v64v64h64v-64v-64v-64h-64zM64 64h-64v64v64v64h64v-64v-64v-64zM192 256h-64h-64v64v64h64h64v-64v-64z" />
    <glyph glyph-name="Otilde" unicode="&#xd5;" 
d="M128 64h64v-64h-64h-64v64h64zM192 64v64v64v64h64v-64v-64v-64h-64zM64 64h-64v64v64v64h64v-64v-64v-64zM192 256h-64h-64v64v64h64h64v-64v-64z" />
    <glyph glyph-name="Odieresis" unicode="&#xd6;" 
d="M128 64h64v-64h-64h-64v64h64zM192 64v64v64v64h64v-64v-64v-64h-64zM64 64h-64v64v64v64h64v-64v-64v-64zM192 256h-64h-64v64h64h64v-64zM192 320v64h64v-64h-64zM64 320h-64v64h64v-64z" />
    <glyph glyph-name="multiply" unicode="&#xd7;" horiz-adv-x="256" 
d="M128 64v64h64v-64h-64zM0 64v64h64v-64h-64zM128 128h-64v64h64v-64zM128 192v64h64v-64h-64zM64 192h-64v64h64v-64z" />
    <glyph glyph-name="Oslash" unicode="&#xd8;" horiz-adv-x="384" 
d="M0 -64v64v64h64v64h64v-64h64h64v-64h-64h-64h-64v-64h-64zM256 64v64v64h64v-64v-64h-64zM128 128v64h64v-64h-64zM64 128h-64v64v64h64v-64v-64zM256 192h-64v64h-64h-64v64h64h64h64v64h64v-64v-64h-64v-64z" />
    <glyph glyph-name="Ugrave" unicode="&#xd9;" 
d="M128 64h64v-64h-64h-64v64h64zM192 64v64v64v64h64v-64v-64v-64h-64zM64 64h-64v64v64v64h64v-64v-64v-64zM64 256v64h64v-64h-64zM64 320h-64v64h64v-64z" />
    <glyph glyph-name="Uacute" unicode="&#xda;" 
d="M128 64h64v-64h-64h-64v64h64zM192 64v64v64v64h64v-64v-64v-64h-64zM64 64h-64v64v64v64h64v-64v-64v-64zM192 256h-64v64h64v-64zM192 320v64h64v-64h-64z" />
    <glyph glyph-name="Ucircumflex" unicode="&#xdb;" 
d="M128 64h64v-64h-64h-64v64h64zM192 64v64v64v64h64v-64v-64v-64h-64zM64 64h-64v64v64v64h64v-64v-64v-64zM128 384h64v-64h-64h-64v64h64z" />
    <glyph glyph-name="Udieresis" unicode="&#xdc;" 
d="M192 320v64h64v-64h-64zM0 320v64h64v-64h-64zM128 64h64v-64h-64h-64v64h64zM192 64v64v64v64h64v-64v-64v-64h-64zM64 64h-64v64v64v64h64v-64v-64v-64z" />
    <glyph glyph-name="Yacute" unicode="&#xdd;" 
d="M128 64h64v-64h-64h-64v64h64zM192 64v64h-64h-64v64h64h64v64v64h64v-64v-64v-64v-64h-64zM64 192h-64v64v64h64v-64v-64zM64 320v64h64v-64h-64z" />
    <glyph glyph-name="Thorn" unicode="&#xde;" horiz-adv-x="256" 
d="M0 0v64v64v64v64v64h64v-64h64v-64h64v-64h-64v64h-64v-64h64v-64h-64v-64h-64z" />
    <glyph glyph-name="germandbls" unicode="&#xdf;" horiz-adv-x="256" 
d="M0 -64v64v64v64v64v64v64h64h64v-64h64v-64h-64v64h-64v-64h64v-64h-64v-64h64v64h64v-64v-64h-64h-64v-64h-64z" />
    <glyph glyph-name="agrave" unicode="&#xe0;" 
d="M192 0h-64h-64v64h-64v64v64h64v64h64v64h64v-64h64v-64v-64v-64v-64h-64zM128 64h64v64v64h-64h-64v-64v-64h64zM128 320h-64v64h64v-64z" />
    <glyph glyph-name="aacute" unicode="&#xe1;" 
d="M192 0h-64h-64v64h-64v64v64h64v64h64v64h64v-64h64v-64v-64v-64v-64h-64zM128 64h64v64v64h-64h-64v-64v-64h64zM192 320v64h64v-64h-64z" />
    <glyph glyph-name="acircumflex" unicode="&#xe2;" 
d="M192 0h-64h-64v64h-64v64v64h64v64h64h64h64v-64v-64v-64v-64h-64zM128 64h64v64v64h-64h-64v-64v-64h64zM128 384h64v-64h-64h-64v64h64z" />
    <glyph glyph-name="atilde" unicode="&#xe3;" 
d="M192 0h-64h-64v64h-64v64v64h64v64h64h64h64v-64v-64v-64v-64h-64zM128 64h64v64v64h-64h-64v-64v-64h64zM192 384h64v-64h-64h-64h-64v64h64h64z" />
    <glyph glyph-name="adieresis" unicode="&#xe4;" 
d="M192 320v64h64v-64h-64zM64 320v64h64v-64h-64zM192 0h-64h-64v64h-64v64v64h64v64h64h64h64v-64v-64v-64v-64h-64zM128 64h64v64v64h-64h-64v-64v-64h64z" />
    <glyph glyph-name="aring" unicode="&#xe5;" 
d="M128 320v64h64v-64h-64zM192 0h-64h-64v64h-64v64v64h64v64h64h64h64v-64v-64v-64v-64h-64zM128 64h64v64v64h-64h-64v-64v-64h64z" />
    <glyph glyph-name="ae" unicode="&#xe6;" horiz-adv-x="512" 
d="M320 0h-64h-64h-64h-64v64h-64v64v64h64v64h64h64h64h64h64v-64h64v-64h-64h-64v64h-64v-64h64v-64h64v-64h-64zM128 64h64v64v64h-64h-64v-64v-64h64z" />
    <glyph glyph-name="ccedilla" unicode="&#xe7;" horiz-adv-x="256" 
d="M64 -128v64h64v-64h-64zM128 -64v64h-64v64h64h64v-64v-64h-64zM64 64h-64v64v64h64v-64v-64zM128 256h64v-64h-64h-64v64h64z" />
    <glyph glyph-name="egrave" unicode="&#xe8;" 
d="M128 0h-64v64h-64v64v64h64v-64h64v-64h64v-64h-64zM128 128v64h-64v64h64v64h64v-64v-64h64v-64h-64h-64zM128 320h-64v64h64v-64z" />
    <glyph glyph-name="eacute" unicode="&#xe9;" 
d="M128 0h-64v64h-64v64v64h64v-64h64v-64h64v-64h-64zM128 128v64h-64v64v64h64v-64h64v-64h64v-64h-64h-64zM128 320v64h64v-64h-64z" />
    <glyph glyph-name="ecircumflex" unicode="&#xea;" 
d="M128 0h-64v64h-64v64v64h64v-64h64v-64h64v-64h-64zM128 128v64h-64v64h64h64v-64h64v-64h-64h-64zM128 384h64v-64h-64h-64v64h64z" />
    <glyph glyph-name="edieresis" unicode="&#xeb;" 
d="M192 320v64h64v-64h-64zM0 320v64h64v-64h-64zM128 0h-64v64h-64v64v64h64v-64h64v-64h64v-64h-64zM128 128v64h-64v64h64h64v-64h64v-64h-64h-64z" />
    <glyph glyph-name="igrave" unicode="&#xec;" horiz-adv-x="192" 
d="M64 0v64v64v64h64v-64v-64v-64h-64zM64 256v64h64v-64h-64zM64 320h-64v64h64v-64z" />
    <glyph glyph-name="iacute" unicode="&#xed;" horiz-adv-x="192" 
d="M0 0v64v64v64h64v-64v-64v-64h-64zM0 256v64h64v-64h-64zM64 320v64h64v-64h-64z" />
    <glyph glyph-name="icircumflex" unicode="&#xee;" horiz-adv-x="256" 
d="M64 0v64v64v64h64v-64v-64v-64h-64zM128 256v64h64v-64h-64zM0 256v64h64v-64h-64zM128 320h-64v64h64v-64z" />
    <glyph glyph-name="idieresis" unicode="&#xef;" horiz-adv-x="256" 
d="M64 0v64v64v64h64v-64v-64v-64h-64zM128 256v64h64v-64h-64zM0 256v64h64v-64h-64z" />
    <glyph glyph-name="eth" unicode="&#xf0;" horiz-adv-x="384" 
d="M128 64h64v-64h-64h-64v64h64zM192 64v64v64h-64h-64v-64v-64h-64v64v64h64v64h64h64v64h64v-64v-64v-64v-64h-64zM256 320v64h64v-64h-64zM192 320h-64h-64v64h64h64v-64z" />
    <glyph glyph-name="ntilde" unicode="&#xf1;" 
d="M192 0v64v64v64h64v-64v-64v-64h-64zM0 0v64v64v64v64h64h64h64v-64h-64h-64v-64v-64v-64h-64zM128 384h64v-64h-64h-64h-64v64h64h64z" />
    <glyph glyph-name="ograve" unicode="&#xf2;" 
d="M128 64h64v-64h-64h-64v64h64zM192 64v64v64h64v-64v-64h-64zM64 64h-64v64v64h64v-64v-64zM192 192h-64h-64v64h64v64h64v-64v-64zM128 320h-64v64h64v-64z" />
    <glyph glyph-name="oacute" unicode="&#xf3;" 
d="M128 64h64v-64h-64h-64v64h64zM192 64v64v64h64v-64v-64h-64zM64 64h-64v64v64h64v-64v-64zM192 192h-64h-64v64v64h64v-64h64v-64zM128 320v64h64v-64h-64z" />
    <glyph glyph-name="ocircumflex" unicode="&#xf4;" 
d="M128 64h64v-64h-64h-64v64h64zM192 64v64v64h64v-64v-64h-64zM64 64h-64v64v64h64v-64v-64zM192 192h-64h-64v64h64h64v-64zM128 384h64v-64h-64h-64v64h64z" />
    <glyph glyph-name="otilde" unicode="&#xf5;" 
d="M128 64h64v-64h-64h-64v64h64zM192 64v64v64h64v-64v-64h-64zM64 64h-64v64v64h64v-64v-64zM192 192h-64h-64v64h64h64v-64zM192 384h64v-64h-64h-64h-64h-64v64h64h64h64z" />
    <glyph glyph-name="odieresis" unicode="&#xf6;" 
d="M192 320v64h64v-64h-64zM0 320v64h64v-64h-64zM128 64h64v-64h-64h-64v64h64zM192 64v64v64h64v-64v-64h-64zM64 64h-64v64v64h64v-64v-64zM192 192h-64h-64v64h64h64v-64z" />
    <glyph glyph-name="divide" unicode="&#xf7;" horiz-adv-x="384" 
d="M128 0v64h64v-64h-64zM128 256v64h64v-64h-64zM256 192h64v-64h-64h-64h-64h-64h-64v64h64h64h64h64z" />
    <glyph glyph-name="oslash" unicode="&#xf8;" 
d="M0 -64v64h64v-64h-64zM128 64h64v-64h-64h-64v64h64zM192 64v64v64h64v-64v-64h-64zM64 64h-64v64v64h64v-64v-64zM192 192h-64h-64v64h64h64v-64zM192 256v64h64v-64h-64z" />
    <glyph glyph-name="ugrave" unicode="&#xf9;" 
d="M192 0h-64h-64v64h64h64v64v64v64h64v-64v-64v-64v-64h-64zM64 64h-64v64v64v64h64v-64v-64v-64zM64 256v64h64v-64h-64zM64 320h-64v64h64v-64z" />
    <glyph glyph-name="uacute" unicode="&#xfa;" 
d="M192 0h-64h-64v64h64h64v64v64v64h64v-64v-64v-64v-64h-64zM64 64h-64v64v64v64h64v-64v-64v-64zM192 256h-64v64h64v-64zM192 320v64h64v-64h-64z" />
    <glyph glyph-name="ucircumflex" unicode="&#xfb;" 
d="M192 0h-64h-64v64h64h64v64v64v64h64v-64v-64v-64v-64h-64zM64 64h-64v64v64v64h64v-64v-64v-64zM128 384h64v-64h-64h-64v64h64z" />
    <glyph glyph-name="udieresis" unicode="&#xfc;" 
d="M192 320v64h64v-64h-64zM0 320v64h64v-64h-64zM192 0h-64h-64v64h64h64v64v64v64h64v-64v-64v-64v-64h-64zM64 64h-64v64v64v64h64v-64v-64v-64z" />
    <glyph glyph-name="yacute" unicode="&#xfd;" 
d="M128 -64h64v-64h-64h-64v64h64zM192 -64v64h-64h-64v64h64h64v64v64h64v-64v-64v-64v-64h-64zM64 64h-64v64v64h64v-64v-64zM192 192h-64v64h64v-64zM192 256v64h64v-64h-64z" />
    <glyph glyph-name="thorn" unicode="&#xfe;" horiz-adv-x="704" 
d="M128 -64v64h-64v64h-64v64h64v64h64v64h64v-64v-64h64h64h64h64h64h64v64v64v64h64v-64v-64v-64v-64h-64h-64h-64h-64h-64h-64h-64v-64v-64h-64z" />
    <glyph glyph-name="ydieresis" unicode="&#xff;" 
d="M192 256v64h64v-64h-64zM0 256v64h64v-64h-64zM128 -64h64v-64h-64h-64v64h64zM192 -64v64h-64h-64v64h64h64v64v64h64v-64v-64v-64v-64h-64zM64 64h-64v64v64h64v-64v-64z" />
    <glyph glyph-name="Amacron" unicode="&#x100;" 
d="M192 0v64v64h-64h-64v-64v-64h-64v64v64v64v64h64v-64h64h64v64h64v-64v-64v-64v-64h-64zM192 256h-64h-64v64h-64v64h64h64h64h64v-64h-64v-64z" />
    <glyph glyph-name="amacron" unicode="&#x101;" 
d="M192 0h-64h-64v64h-64v64v64h64v64h64h64h64v-64v-64v-64v-64h-64zM128 64h64v64v64h-64h-64v-64v-64h64zM192 384h64v-64h-64h-64h-64v64h64h64z" />
    <glyph glyph-name="Abreve" unicode="&#x102;" 
d="M192 0v64v64h-64h-64v-64v-64h-64v64v64v64v64h64v-64h64h64v64h64v-64v-64v-64v-64h-64zM192 256h-64h-64v64h64h64v-64zM192 320v64h64v-64h-64zM64 320h-64v64h64v-64z" />
    <glyph glyph-name="abreve" unicode="&#x103;" 
d="M192 0h-64h-64v64h-64v64v64h64v64v64h64h64v-64h64v-64v-64v-64v-64h-64zM128 64h64v64v64h-64h-64v-64v-64h64zM192 320v64h64v-64h-64zM64 320h-64v64h64v-64z" />
    <glyph glyph-name="Aogonek" unicode="&#x104;" 
d="M192 -128v64h64v-64h-64zM0 0v64v64v64v64h64v-64h64h64v64h64v-64v-64v-64v-64h-64v-64h-64v64v64h64v64h-64h-64v-64v-64h-64zM192 256h-64h-64v64h64h64v-64z" />
    <glyph glyph-name="aogonek" unicode="&#x105;" 
d="M192 -128v64h64v-64h-64zM192 -64h-64v64h-64v64h-64v64v64h64v64h64h64h64v-64v-64v-64v-64h-64v-64zM128 64h64v64v64h-64h-64v-64v-64h64z" />
    <glyph glyph-name="Cacute" unicode="&#x106;" horiz-adv-x="256" 
d="M128 64h64v-64h-64h-64v64h64zM64 64h-64v64v64v64h64v-64v-64v-64zM64 256v64h64v64h64v-64v-64h-64h-64z" />
    <glyph glyph-name="cacute" unicode="&#x107;" horiz-adv-x="256" 
d="M128 64h64v-64h-64h-64v64h64zM64 64h-64v64v64h64v-64v-64zM64 192v64v64h64v-64h64v-64h-64h-64zM128 320v64h64v-64h-64z" />
    <glyph glyph-name="Ccircumflex" unicode="&#x108;" horiz-adv-x="256" 
d="M128 64h64v-64h-64h-64v64h64zM64 64h-64v64v64v64h64v-64v-64v-64zM64 256v64v64h64h64v-64v-64h-64h-64z" />
    <glyph glyph-name="ccircumflex" unicode="&#x109;" horiz-adv-x="256" 
d="M128 64h64v-64h-64h-64v64h64zM64 64h-64v64v64h64v-64v-64zM128 256h64v-64h-64h-64v64h64zM128 384h64v-64h-64h-64v64h64z" />
    <glyph glyph-name="Cdotaccent" unicode="&#x10a;" horiz-adv-x="256" 
d="M64 320v64h64v-64h-64zM128 64h64v-64h-64h-64v64h64zM64 64h-64v64v64h64v-64v-64zM128 256h64v-64h-64h-64v64h64z" />
    <glyph glyph-name="cdotaccent" unicode="&#x10b;" horiz-adv-x="256" 
d="M64 320v64h64v-64h-64zM128 64h64v-64h-64h-64v64h64zM64 64h-64v64v64h64v-64v-64zM128 256h64v-64h-64h-64v64h64z" />
    <glyph glyph-name="Ccaron" unicode="&#x10c;" horiz-adv-x="256" 
d="M128 64h64v-64h-64h-64v64h64zM64 64h-64v64v64h64v-64v-64zM128 256h64v-64h-64h-64v64h64zM128 384h64v-64h-64h-64h-64v64h64h64z" />
    <glyph glyph-name="ccaron" unicode="&#x10d;" horiz-adv-x="256" 
d="M128 64h64v-64h-64h-64v64h64zM64 64h-64v64v64h64v-64v-64zM128 256h64v-64h-64h-64v64h64zM128 384h64v-64h-64h-64h-64v64h64h64z" />
    <glyph glyph-name="Dcaron" unicode="&#x10e;" 
d="M128 64h64v64v64h-64h-64v-64v-64h64zM128 0h-64h-64v64v64v64v64h64h64h64v-64h64v-64v-64h-64v-64h-64zM192 384h64v-64h-64h-64h-64h-64v64h64h64h64z" />
    <glyph glyph-name="dcaron" unicode="&#x10f;" horiz-adv-x="448" 
d="M320 256v64v64h64v-64v-64h-64zM192 0h-64h-64v64h-64v64v64h64v64h64h64v64h64v-64v-64v-64v-64v-64h-64zM128 64h64v64v64h-64h-64v-64v-64h64z" />
    <glyph glyph-name="Dcroat" unicode="&#x110;" horiz-adv-x="384" 
d="M192 64h64v64v64v64h-64h-64v-64h64v-64h-64v-64h64zM192 0h-64h-64v64v64h-64v64h64v64v64h64h64h64v-64h64v-64v-64v-64h-64v-64h-64z" />
    <glyph glyph-name="dcroat" unicode="&#x111;" 
d="M128 0h-64v64h-64v64h64v64h64v64h-64h-64v64h64h64v64h64v-64h64v-64h-64v-64v-64v-64v-64h-64zM128 64v64h-64v-64h64z" />
    <glyph glyph-name="Emacron" unicode="&#x112;" horiz-adv-x="256" 
d="M128 64h64v-64h-64h-64h-64v64v64v64v64v64h64h64h64v-64h-64h-64v-64h64v-64h-64v-64h64zM128 448h64v-64h-64h-64h-64v64h64h64z" />
    <glyph glyph-name="emacron" unicode="&#x113;" 
d="M128 0h-64v64h-64v64v64h64v-64h64v-64h64v-64h-64zM128 128v64h-64v64h64h64v-64h64v-64h-64h-64zM192 384h64v-64h-64h-64h-64h-64v64h64h64h64z" />
    <glyph glyph-name="Ebreve" unicode="&#x114;" horiz-adv-x="256" 
d="M128 64h64v-64h-64h-64h-64v64v64v64v64v64v64h64v-64h64v64h64v-64v-64h-64h-64v-64h64v-64h-64v-64h64z" />
    <glyph glyph-name="ebreve" unicode="&#x115;" 
d="M128 0h-64v64h-64v64v64h64v-64h64v-64h64v-64h-64zM128 128v64h-64v64v64h64v-64h64v-64h64v-64h-64h-64zM128 320v64h64v-64h-64zM64 320h-64v64h64v-64z" />
    <glyph glyph-name="Edotaccent" unicode="&#x116;" horiz-adv-x="256" 
d="M128 64h64v-64h-64h-64h-64v64v64v64v64v64h64v64h64v-64h64v-64h-64h-64v-64h64v-64h-64v-64h64z" />
    <glyph glyph-name="edotaccent" unicode="&#x117;" 
d="M64 320v64h64v-64h-64zM128 0h-64v64h-64v64v64h64v-64h64v-64h64v-64h-64zM128 128v64h-64v64h64h64v-64h64v-64h-64h-64z" />
    <glyph glyph-name="Eogonek" unicode="&#x118;" horiz-adv-x="256" 
d="M128 -128v64h64v-64h-64zM128 -64h-64v64h-64v64v64v64v64v64h64h64h64v-64h-64h-64v-64h64v-64h-64v-64h64h64v-64h-64v-64z" />
    <glyph glyph-name="eogonek" unicode="&#x119;" 
d="M128 -128v64h64v-64h-64zM128 -64h-64v64v64h-64v64v64h64v-64h64v-64h64v-64h-64v-64zM128 128v64h-64v64h64h64v-64h64v-64h-64h-64z" />
    <glyph glyph-name="Ecaron" unicode="&#x11a;" horiz-adv-x="256" 
d="M128 64h64v-64h-64h-64h-64v64v64v64v64v64v64h64v-64h64v64h64v-64v-64h-64h-64v-64h64v-64h-64v-64h64z" />
    <glyph glyph-name="ecaron" unicode="&#x11b;" 
d="M128 0h-64v64h-64v64v64h64v-64h64v-64h64v-64h-64zM128 128v64h-64v64v64h64v-64h64v-64h64v-64h-64h-64zM128 320v64h64v-64h-64zM64 320h-64v64h64v-64z" />
    <glyph glyph-name="Gcircumflex" unicode="&#x11c;" 
d="M192 0h-64h-64v64h64h64v64h-64v64h64h64v-64v-64v-64h-64zM64 64h-64v64v64v64h64v-64v-64v-64zM192 256h-64h-64v64v64h64h64h64v-64v-64h-64z" />
    <glyph glyph-name="gcircumflex" unicode="&#x11d;" 
d="M128 -64h64v-64h-64h-64v64h64zM192 -64v64h-64h-64v64h-64v64v64h64v64h64h64h64v-64v-64v-64v-64v-64h-64zM128 64h64v64v64h-64h-64v-64v-64h64zM192 384h64v-64h-64h-64h-64v64h64h64z" />
    <glyph glyph-name="Gbreve" unicode="&#x11e;" 
d="M192 0h-64h-64v64h64h64v64h-64v64h64h64v-64v-64v-64h-64zM64 64h-64v64v64v64h64v-64v-64v-64zM192 256h-64h-64v64v64h64v-64h64v64h64v-64v-64h-64z" />
    <glyph glyph-name="gbreve" unicode="&#x11f;" 
d="M128 -64h64v-64h-64h-64v64h64zM192 -64v64h-64h-64v64h-64v64v64h64v64v64h64h64v-64h64v-64v-64v-64v-64v-64h-64zM128 64h64v64v64h-64h-64v-64v-64h64zM192 320v64h64v-64h-64zM64 320h-64v64h64v-64z" />
    <glyph glyph-name="Hbar" unicode="&#x126;" horiz-adv-x="448" 
d="M256 0v64v64h-64h-64v-64v-64h-64v64v64v64v64h-64v64h64v64h64v-64h64h64v64h64v-64h64v-64h-64v-64v-64v-64v-64h-64zM192 192h64v64h-64h-64v-64h64z" />
    <glyph glyph-name="kgreenlandic" unicode="&#x138;" horiz-adv-x="256" 
d="M128 0v64h64v-64h-64zM0 0v64v64v64v64h64v-64v-64h64v-64h-64v-64h-64zM128 128v64v64h64v-64v-64h-64z" />
    <glyph glyph-name="Lslash" unicode="&#x141;" 
d="M192 64h64v-64h-64h-64h-64v64v64h-64v64h64v64v64h64v-64h64v-64h-64v-64v-64h64z" />
    <glyph glyph-name="lslash" unicode="&#x142;" horiz-adv-x="256" 
d="M64 0v64h-64v64h64v64v64v64h64v-64v-64h64v-64h-64v-64v-64h-64z" />
    <glyph glyph-name="ncaron" unicode="&#x148;" 
d="M192 0v64v64v64h64v-64v-64v-64h-64zM0 0v64v64v64v64h64v64h64v-64h64v-64h-64h-64v-64v-64v-64h-64zM128 320v64h64v-64h-64zM64 320h-64v64h64v-64z" />
    <glyph glyph-name="eng" unicode="&#x14b;" 
d="M128 -128v64h64v-64h-64zM0 0v64v64v64v64h64h64h64v-64h64v-64v-64v-64v-64h-64v64v64v64v64h-64h-64v-64v-64v-64h-64z" />
    <glyph glyph-name="OE" unicode="&#x152;" horiz-adv-x="448" 
d="M320 64h64v-64h-64h-64h-64h-64h-64v64h-64v64v64v64h64v64h64h64h64h64h64v-64h-64h-64v-64h64v-64h-64v-64h64zM128 64h64v64v64v64h-64h-64v-64v-64v-64h64z" />
    <glyph glyph-name="Rcommaaccent" unicode="&#x156;" horiz-adv-x="384" 
d="M256 0v64v64v64h64v-64v-64v-64h-64zM64 0v64v64v64v64h64h64h64v-64h-64h-64v-64v-64v-64h-64zM64 256h-64v64v64h64v-64v-64z" />
    <glyph glyph-name="rcommaaccent" unicode="&#x157;" horiz-adv-x="256" 
d="M0 -128v64h64v-64h-64zM64 -64v64h64v-64h-64zM64 0h-64v64v64v64v64h64v-64h64v-64h-64v-64v-64zM128 192v64h64v-64h-64z" />
    <glyph glyph-name="Tcommaaccent" unicode="&#x162;" horiz-adv-x="256" 
d="M64 -128v64h64v-64h-64zM128 -64v64h64v-64h-64zM128 0h-64v64v64v64v64h-64v64h64h64h64v-64h-64v-64v-64v-64v-64z" />
    <glyph glyph-name="tcommaaccent" unicode="&#x163;" horiz-adv-x="192" 
d="M0 -128v64h64v-64h-64zM64 -64v64h-64v64v64v64v64v64h64v-64h64v-64h-64v-64v-64h64v-64v-64h-64z" />
    <glyph glyph-name="Tbar" unicode="&#x166;" horiz-adv-x="384" 
d="M128 0v64v64h-64v64h64v64h-64h-64v64h64h64h64h64h64v-64h-64h-64v-64h64v-64h-64v-64v-64h-64z" />
    <glyph glyph-name="uring" unicode="&#x16f;" 
d="M192 0h-64h-64v64h64h64v64v64v64h64v-64v-64v-64v-64h-64zM64 64h-64v64v64v64h64v-64v-64v-64zM128 384h64v-64h-64h-64v64h64z" />
    <glyph glyph-name="Uogonek" unicode="&#x172;" 
d="M192 -64v64h64v-64h-64zM192 0h-64h-64v64h64h64v-64zM192 64v64v64v64v64h64v-64v-64v-64v-64h-64zM64 64h-64v64v64v64v64h64v-64v-64v-64v-64z" />
    <glyph glyph-name="uogonek" unicode="&#x173;" 
d="M192 -128v64h64v-64h-64zM192 -64h-64v64h-64v64h64h64v64v64v64h64v-64v-64v-64v-64h-64v-64zM64 64h-64v64v64v64h64v-64v-64v-64z" />
    <glyph glyph-name="Ydieresis" unicode="&#x178;" 
d="M192 256v64h64v-64h-64zM0 256v64h64v-64h-64zM128 -64h64v-64h-64h-64v64h64zM192 -64v64h-64h-64v64h64h64v64v64h64v-64v-64v-64v-64h-64zM64 64h-64v64v64h64v-64v-64z" />
    <glyph glyph-name="Zacute" unicode="&#x179;" horiz-adv-x="256" 
d="M128 64h64v-64h-64h-64h-64v64v64h64v-64h64zM64 128v64h64v-64h-64zM128 192v64h-64h-64v64h64h64h64v-64v-64h-64z" />
    <glyph glyph-name="zacute" unicode="&#x17a;" 
d="M192 64h64v-64h-64h-64h-64h-64v64h64v64h64v-64h64zM128 128v64h-64h-64v64h64v64h64v-64h64h64v-64h-64v-64h-64zM128 320v64h64v-64h-64z" />
    <glyph glyph-name="Delta" unicode="&#x394;" horiz-adv-x="256" 
d="M128 0h-64h-64v64v64h64v-64h64v64h64v-64v-64h-64zM128 128h-64v64h64v-64z" />
    <glyph glyph-name="alpha" unicode="&#x3b1;" horiz-adv-x="384" 
d="M256 0v64h64v-64h-64zM128 64h64v-64h-64h-64v64h64zM256 64h-64v64v64h64v-64v-64zM64 64h-64v64v64h64v-64v-64zM256 192v64h64v-64h-64zM192 192h-64h-64v64h64h64v-64z" />
    <glyph glyph-name="beta" unicode="&#x3b2;" 
d="M0 -64v64v64v64v64v64h64v-64v-64v-64v-64v-64h-64zM192 0h-64v64h64v64h64v-64v-64h-64zM192 128h-64v64h64v-64zM192 192v64h64v-64h-64zM192 256h-64h-64v64h64h64v-64z" />
    <glyph glyph-name="gamma" unicode="&#x3b3;" 
d="M64 -128v64v64v64h64v-64v-64v-64h-64zM128 64v64h64v-64h-64zM64 64h-64v64v64h64v-64v-64zM192 128v64h64v-64h-64z" />
    <glyph glyph-name="bullet" unicode="&#x2022;" horiz-adv-x="192" 
d="M64 64h-64v64v64h64h64v-64v-64h-64z" />
    <glyph glyph-name="perthousand" unicode="&#x2030;" horiz-adv-x="384" 
d="M256 0v64h64v-64h-64zM128 0v64h64v-64h-64zM0 0v64v64h64v-64v-64h-64zM0 256v64h64v-64h-64zM64 128v64h64v-64h-64zM128 192v64v64h64v-64v-64h-64z" />
    <glyph glyph-name="Euro" unicode="&#x20ac;" 
d="M192 64h64v-64h-64h-64v64h64zM128 64h-64v64h-64v64h64v64h64v-64h64v-64h-64v-64zM192 320h64v-64h-64h-64v64h64z" />
    <glyph glyph-name="trademark" unicode="&#x2122;" 
d="M0 256v64v64h64h64h64h64v-64v-64h-64h-64v64h-64v-64h-64z" />
    <glyph glyph-name="arrowleft" unicode="&#x2190;" horiz-adv-x="576" 
d="M128 0v64h64v-64h-64zM128 64h-64v64h-64v64h64v64h64v-64h64h64h64h64h64h64v-64h-64h-64h-64h-64h-64h-64v-64zM128 256v64h64v-64h-64z" />
    <glyph glyph-name="arrowup" unicode="&#x2191;" horiz-adv-x="384" 
d="M128 -64v64v64v64v64v64h-64v-64h-64v64h64v64h64v64h64v-64h64v-64h64v-64h-64v64h-64v-64v-64v-64v-64v-64h-64z" />
    <glyph glyph-name="arrowright" unicode="&#x2192;" horiz-adv-x="576" 
d="M320 0v64h64v-64h-64zM384 64v64h-64h-64h-64h-64h-64h-64v64h64h64h64h64h64h64v64h64v-64h64v-64h-64v-64h-64zM384 256h-64v64h64v-64z" />
    <glyph glyph-name="arrowdown" unicode="&#x2193;" horiz-adv-x="384" 
d="M128 -128v64h-64v64h64v64v64v64v64v64v64h64v-64v-64v-64v-64v-64v-64h64v-64h-64v-64h-64zM256 0v64h64v-64h-64zM64 0h-64v64h64v-64z" />
    <glyph glyph-name="arrowboth" unicode="&#x2194;" horiz-adv-x="576" 
d="M320 0v64h64v-64h-64zM128 0v64h64v-64h-64zM384 64v64h-64h-64h-64h-64v-64h-64v64h-64v64h64v64h64v-64h64h64h64h64v64h64v-64h64v-64h-64v-64h-64zM384 256h-64v64h64v-64zM128 256v64h64v-64h-64z" />
    <glyph glyph-name="arrowupdn" unicode="&#x2195;" horiz-adv-x="384" 
d="M128 -128v64h-64v64h64v64v64v64v64h-64v-64h-64v64h64v64h64v64h64v-64h64v-64h64v-64h-64v64h-64v-64v-64v-64v-64h64v-64h-64v-64h-64zM256 0v64h64v-64h-64zM64 0h-64v64h64v-64z" />
    <glyph glyph-name="summation" unicode="&#x2211;" 
d="M192 0h64v-64h-64h-64h-64h-64v64h64v64h64v-64h64zM128 64v64v64h64v-64v-64h-64zM128 192h-64v64h-64v64h64h64h64h64v-64h-64h-64v-64z" />
    <glyph glyph-name="radical" unicode="&#x221a;" horiz-adv-x="384" 
d="M64 0v64v64h64v64v64v64v64h64h64h64v-64h-64h-64v-64v-64v-64v-64h-64v-64h-64zM64 128h-64v64h64v-64z" />
    <glyph glyph-name="integral" unicode="&#x222b;" horiz-adv-x="256" 
d="M0 -128v64h64v-64h-64zM64 -64v64v64v64h-64v64h64v64v64h64v-64v-64h64v-64h-64v-64v-64v-64h-64zM128 320v64h64v-64h-64z" />
    <glyph glyph-name="approxequal" unicode="&#x2248;" 
d="M128 0v64h64v-64h-64zM0 0v64h64v-64h-64zM128 192v64h64v-64h-64zM0 192v64h64v-64h-64zM192 64v64h64v-64h-64zM128 64h-64v64h64v-64zM192 256v64h64v-64h-64zM128 256h-64v64h64v-64z" />
    <glyph glyph-name="notequal" unicode="&#x2260;" 
d="M64 0v64h-64v64h64v64h-64v64h64h64v64h64v-64h64v-64h-64v-64h64v-64h-64h-64v-64h-64z" />
    <glyph glyph-name="lessequal" unicode="&#x2264;" horiz-adv-x="256" 
d="M128 64h64v-64h-64h-64h-64v64h64h64zM128 192h64v-64h-64h-64v64h64zM64 192h-64v64h64v-64zM128 320h64v-64h-64h-64v64h64z" />
    <glyph glyph-name="greaterequal" unicode="&#x2265;" horiz-adv-x="256" 
d="M128 64h64v-64h-64h-64h-64v64h64h64zM64 192h64v-64h-64h-64v64h64zM128 192v64h64v-64h-64zM128 256h-64h-64v64h64h64v-64z" />
    <glyph glyph-name="SF100000" unicode="&#x2500;" 
d="M192 192h64v-64h-64h-64h-64h-64v64h64h64h64z" />
    <glyph glyph-name="SF110000" unicode="&#x2502;" horiz-adv-x="256" 
d="M128 -128v64v64v64v64v64v64v64v64h64v-64v-64v-64v-64v-64v-64v-64v-64h-64z" />
    <glyph glyph-name="SF010000" unicode="&#x250c;" 
d="M128 -128v64v64v64v64v64h64h64v-64h-64v-64v-64v-64v-64h-64z" />
    <glyph glyph-name="SF030000" unicode="&#x2510;" horiz-adv-x="256" 
d="M128 -128v64v64v64v64h-64h-64v64h64h64h64v-64v-64v-64v-64v-64h-64z" />
    <glyph glyph-name="SF020000" unicode="&#x2514;" 
d="M192 128h-64v64v64v64v64h64v-64v-64v-64h64v-64h-64z" />
    <glyph glyph-name="SF040000" unicode="&#x2518;" horiz-adv-x="256" 
d="M128 128h-64h-64v64h64h64v64v64v64h64v-64v-64v-64v-64h-64z" />
    <glyph glyph-name="SF080000" unicode="&#x251c;" 
d="M128 -128v64v64v64v64v64v64v64v64h64v-64v-64v-64h64v-64h-64v-64v-64v-64v-64h-64z" />
    <glyph glyph-name="SF090000" unicode="&#x2524;" horiz-adv-x="256" 
d="M128 -128v64v64v64v64h-64h-64v64h64h64v64v64v64h64v-64v-64v-64v-64v-64v-64v-64v-64h-64z" />
    <glyph glyph-name="SF060000" unicode="&#x252c;" 
d="M128 -128v64v64v64v64h-64h-64v64h64h64h64h64v-64h-64v-64v-64v-64v-64h-64z" />
    <glyph glyph-name="SF070000" unicode="&#x2534;" 
d="M192 128h-64h-64h-64v64h64h64v64v64v64h64v-64v-64v-64h64v-64h-64z" />
    <glyph glyph-name="SF050000" unicode="&#x253c;" 
d="M128 -128v64v64v64v64h-64h-64v64h64h64v64v64v64h64v-64v-64v-64h64v-64h-64v-64v-64v-64v-64h-64z" />
    <glyph glyph-name="uni3000" unicode="&#x3000;" horiz-adv-x="1024" 
 />
  </font>
</defs>
</svg>
